<?xml version="1.0" ?>
<!DOCTYPE svg  PUBLIC '-//W3C//DTD SVG 1.1//EN'  'http://www.w3.org/Graphics/SVG/1.1/DTD/svg11.dtd'>
<!-- Uploaded to: SVG Repo, www.svgrepo.com, Generator: SVG Repo Mixer Tools -->
<svg fill="#000000" width="800px" height="800px" viewBox="0 0 512 512" enable-background="new 0 0 512 512" id="Layer_1" version="1.1" xml:space="preserve" xmlns="http://www.w3.org/2000/svg" xmlns:xlink="http://www.w3.org/1999/xlink">
<g>
<g>
<path d="M225.485,308.451c-1.727,0-3.453-0.447-5-1.34c-3.094-1.786-5-5.087-5-8.66V186.997c0-3.573,1.906-6.874,5-8.66    c3.094-1.786,6.906-1.786,10,0l96.523,55.727c3.094,1.786,5,5.087,5,8.66s-1.906,6.874-5,8.66l-96.523,55.728    C228.938,308.004,227.211,308.451,225.485,308.451z M235.485,204.317v76.813l66.523-38.407L235.485,204.317z"/>
</g>
<g>
<path d="M400.5,453h-289c-12.131,0-22-9.869-22-22V81c0-12.131,9.869-22,22-22h289c12.131,0,22,9.869,22,22v350    C422.5,443.131,412.631,453,400.5,453z M111.5,79c-1.103,0-2,0.897-2,2v350c0,1.103,0.897,2,2,2h289c1.103,0,2-0.897,2-2V81    c0-1.103-0.897-2-2-2H111.5z"/>
</g>
<g>
<path d="M400.5,453h-289c-12.131,0-22-9.869-22-22v-40c0-12.131,9.869-22,22-22h289c12.131,0,22,9.869,22,22v40    C422.5,443.131,412.631,453,400.5,453z M111.5,389c-1.103,0-2,0.897-2,2v40c0,1.103,0.897,2,2,2h289c1.103,0,2-0.897,2-2v-40    c0-1.103-0.897-2-2-2H111.5z"/>
</g>
<g>
<path d="M273.746,421h-27.579c-5.523,0-10-4.477-10-10s4.477-10,10-10h27.579c5.523,0,10,4.477,10,10S279.269,421,273.746,421z"/>
</g>
</g>
</svg>